<svg xmlns="http://www.w3.org/2000/svg" width="27.143" height="27.143" viewBox="0 0 27.143 27.143">
  <path id="issue" d="M13.571,27.143A13.313,13.313,0,0,1,8.3,26.069a13.279,13.279,0,0,1-7.223-7.223,13.494,13.494,0,0,1,0-10.549A13.279,13.279,0,0,1,8.3,1.074a13.494,13.494,0,0,1,10.549,0A13.279,13.279,0,0,1,26.069,8.3a13.494,13.494,0,0,1,0,10.549,13.279,13.279,0,0,1-7.223,7.223,13.313,13.313,0,0,1-5.275,1.074Zm0-23.75a9.968,9.968,0,0,0-5.1,1.365A10.1,10.1,0,0,0,4.757,8.469a10.219,10.219,0,0,0,0,10.2,10.1,10.1,0,0,0,3.711,3.711,10.219,10.219,0,0,0,10.2,0,10.1,10.1,0,0,0,3.711-3.711,10.219,10.219,0,0,0,0-10.2,10.1,10.1,0,0,0-3.711-3.711A9.968,9.968,0,0,0,13.571,3.393Zm.848,18.66h-1.7a.86.86,0,0,1-.848-.848v-1.7a.86.86,0,0,1,.848-.848h1.7a.86.86,0,0,1,.848.848v1.7a.86.86,0,0,1-.848.848Zm0-5.089h-1.7a.86.86,0,0,1-.848-.848V5.937a.86.86,0,0,1,.848-.848h1.7a.86.86,0,0,1,.848.848V16.116a.86.86,0,0,1-.848.848Z" fill="#fff"/>
</svg>
