<svg xmlns="http://www.w3.org/2000/svg" width="27.643" height="29.485" viewBox="0 0 27.643 29.485">
  <g id="kanban-fill" transform="translate(-1.125)">
    <path id="패스_70" data-name="패스 70" d="M4.811,0A3.686,3.686,0,0,0,1.125,3.686V25.8a3.686,3.686,0,0,0,3.686,3.686H25.082A3.686,3.686,0,0,0,28.768,25.8V3.686A3.686,3.686,0,0,0,25.082,0Zm9.214,3.686a1.843,1.843,0,0,0-1.843,1.843v5.529A1.843,1.843,0,0,0,14.025,12.9h1.843a1.843,1.843,0,0,0,1.843-1.843V5.529a1.843,1.843,0,0,0-1.843-1.843ZM4.811,5.529A1.843,1.843,0,0,1,6.654,3.686H8.5a1.843,1.843,0,0,1,1.843,1.843v12.9A1.843,1.843,0,0,1,8.5,20.271H6.654a1.843,1.843,0,0,1-1.843-1.843ZM21.4,3.686a1.843,1.843,0,0,0-1.843,1.843V23.957A1.843,1.843,0,0,0,21.4,25.8h1.843a1.843,1.843,0,0,0,1.843-1.843V5.529a1.843,1.843,0,0,0-1.843-1.843Z" fill="#fff" fill-rule="evenodd"/>
  </g>
</svg>
