<svg xmlns="http://www.w3.org/2000/svg" width="862.329" height="506.035" viewBox="0 0 862.329 506.035">
  <g id="그룹_85" data-name="그룹 85" transform="translate(-1008.836 -243.982)">
    <path id="패스_65" data-name="패스 65" d="M539.867,356.738c-34.974-11.319-71.952-20.808-109.743-19.83-55.559,1.443-108.978,27.334-135.325,65.6-22.27,32.427-25.243,70.538-34.964,106.6-11.977,44.424-34.712,86.582-58.977,127.811C187.825,659.059,174.076,681.668,171.81,706c-3.108,33.783,17.361,67.556,49.633,90.194s75.215,34.7,118.361,37.52c22.958,1.491,46.951.339,67.391-7.93,21.621-8.714,37.433-24.662,59.142-33.279,20.121-7.979,43.572-9,66.142-7.833a368,368,0,0,1,86.234,14.776c31.459,9.411,60.691,22.958,92.082,32.5s66.481,14.95,98.647,7.272c30.2-7.2,54.155-24.962,75.757-42.952a823.681,823.681,0,0,0,96.778-94.89c19.511-22.648,37.685-46.564,46.4-73.026,16.644-50.6-5.655-107.894-55.549-142.742-41.335-28.883-96.943-41.635-151.4-49.382-49.662-7.136-107.119-7.843-152.763-26.017C625.132,392.835,585.53,371.514,539.867,356.738Z" transform="translate(837.337 -92.856)" fill="#939597" opacity="0.117"/>
    <g id="그룹_2" data-name="그룹 2" transform="translate(1095.984 285.816)">
      <ellipse id="타원_3" data-name="타원 3" cx="94.161" cy="9.332" rx="94.161" ry="9.332" transform="translate(499.71 429.703)" fill="#939597" opacity="0.401"/>
      <ellipse id="타원_4" data-name="타원 4" cx="33.723" cy="4.666" rx="33.723" ry="4.666" transform="translate(24.597 430.066)" fill="#e6e6e6"/>
      <path id="패스_68" data-name="패스 68" d="M0,0H441.4V221.45H0Z" fill="#939597" opacity="0.832"/>
      <rect id="사각형_3" data-name="사각형 3" width="400.862" height="185.417" transform="translate(20.268 18.016)" fill="#fff"/>
      <path id="패스_46" data-name="패스 46" d="M26.441,217.867l-1.062-1.062,53.829-53.828L96.1,179.868l29.651-29.652,36.408,36.408,61.931-61.931,28.15,28.151,61.555-61.556,34.531,34.531L411.6,62.542l1.062,1.062-64.338,64.338L313.795,93.41l-61.555,61.555-28.15-28.15-61.931,61.931L125.75,152.339,96.1,181.991,79.208,165.1Z" transform="translate(-5.642 -13.903)" fill="#f5df4d"/>
      <circle id="타원_5" data-name="타원 5" cx="9.008" cy="9.008" r="9.008" transform="translate(299.52 70.564)" fill="#f5df4d"/>
      <circle id="타원_6" data-name="타원 6" cx="9.008" cy="9.008" r="9.008" transform="translate(111.851 129.117)" fill="#f5df4d"/>
      <circle id="타원_7" data-name="타원 7" cx="9.008" cy="9.008" r="9.008" transform="translate(237.965 129.867)" fill="#f5df4d"/>
      <circle id="타원_8" data-name="타원 8" cx="9.008" cy="9.008" r="9.008" transform="translate(150.136 163.648)" fill="#f5df4d"/>
      <circle id="타원_9" data-name="타원 9" cx="9.008" cy="9.008" r="9.008" transform="translate(207.938 104.344)" fill="#f5df4d"/>
      <circle id="타원_10" data-name="타원 10" cx="9.008" cy="9.008" r="9.008" transform="translate(333.301 104.344)" fill="#f5df4d"/>
      <path id="패스_47" data-name="패스 47" d="M218.7,683.508c3.655,13.512,16.175,21.88,16.175,21.88s6.594-13.539,2.938-27.05-16.175-21.88-16.175-21.88S215.043,670,218.7,683.508Z" transform="translate(-170.974 -271.712)" fill="#e6e6e6"/>
      <path id="패스_48" data-name="패스 48" d="M218.755,684.481c10.03,9.764,11.255,24.772,11.255,24.772s-15.036-.821-25.066-10.585S193.689,673.9,193.689,673.9,208.725,674.718,218.755,684.481Z" transform="translate(-165.659 -275.589)" fill="#f5df4d"/>
      <path id="패스_49" data-name="패스 49" d="M876.518,277.525l5.745,56.812h47.28l-2.272-86.354c0-18.587-12.849-34.845-31.436-34.845s-30.679,15.5-30.679,34.087l-3.03,87.112h7.709Z" transform="translate(-314.255 -173.161)" fill="#2f2e41"/>
      <path id="패스_50" data-name="패스 50" d="M915.307,679.013s-2.041,12.924-5.442,14.965,17.686,6.8,17.686,6.8l3.4-20.407Z" transform="translate(-324.785 -276.727)" fill="#fbbebe"/>
      <path id="패스_51" data-name="패스 51" d="M939.22,489.211l7.482,8.843-3.4,30.61-2.721,60.54s5.442,52.377,0,53.738-29.93.68-29.25-2.721,1.36-6.122,2.721-10.884-1.36-21.767-1.36-21.767l3.4-19.046-12.244-82.307Z" transform="translate(-323.53 -234.533)" fill="#2f2e41"/>
      <path id="패스_52" data-name="패스 52" d="M908.632,695.459s-7.482-1.36-8.163,0-13.6,15.645-15.645,15.645-17.006,13.6-1.36,14.285,41.494-11.564,41.494-11.564-3.8-17.309-3.6-16.477S908.632,698.86,908.632,695.459Z" transform="translate(-317.43 -280.248)" fill="#2f2e41"/>
      <path id="패스_53" data-name="패스 53" d="M907.347,652.286s19.046,21.087,19.726,23.128,10.884,0,10.884,0l4.081-13.6-3.4-4.762L919.591,641.4Z" transform="translate(-324.308 -268.366)" fill="#fbbebe"/>
      <path id="패스_54" data-name="패스 54" d="M939.514,671.394l-9.863,9.284S942.235,699.963,942.235,702s.68,19.046,7.482,16.325S957.2,688.4,957.2,688.4s-.68-27.889-4.762-29.93-13.027-1.4-13.027-1.4S944.956,670.713,939.514,671.394Z" transform="translate(-329.266 -271.828)" fill="#2f2e41"/>
      <path id="패스_55" data-name="패스 55" d="M862.633,410.562s-3.4,10.884-4.081,13.6-4.762,10.2-4.762,21.767,1.36,25.168,0,26.529-23.128,77.545-13.6,85.708S881,593.542,883.04,596.943s2.721,11.564,6.8,10.2,19.726-14.965,20.407-17.686-8.843-7.482-8.843-7.482S882.36,554.089,877.6,554.769s-4.081-3.4-3.4-5.442,2.041-3.4,0-3.4-.68-5.442,0-8.163,16.325-39.453,16.325-39.453l41.494-18.366s-2.041-49.656-17.006-63.261l-3.4-8.163S873.517,405.8,862.633,410.562Z" transform="translate(-308.844 -216.423)" fill="#2f2e41"/>
      <path id="패스_56" data-name="패스 56" d="M885.965,273.169s3.4,23.808-4.762,25.168-14.965.68-14.965,1.36,20.407,21.767,20.407,21.767l19.046-1.36L922.7,301.738s-15.645-2.721-15.645-12.244-.68-16.325-.68-16.325Z" transform="translate(-315.169 -186.506)" fill="#ffb8b8"/>
      <circle id="타원_11" data-name="타원 11" cx="21.087" cy="21.087" r="21.087" transform="translate(560.252 54.353)" fill="#ffb8b8"/>
      <path id="패스_57" data-name="패스 57" d="M879.288,303.3S846.36,306.4,844.319,315.24s13.6,63.941,15.645,68.7a15.047,15.047,0,0,1,1.36,8.163,26.914,26.914,0,0,1,21.767-4.762c12.924,2.721,31.29,1.36,31.29,1.36s6.122-25.168,7.482-27.889,6.8-17.686,6.8-21.767,8.163-21.087,8.163-21.087-4.081-12.244-19.046-11.564c0,0-6.527-2.922-8.365-.781s-12.041,11.664-24.966,7.583S879.288,303.3,879.288,303.3Z" transform="translate(-310.256 -193.205)" fill="#939597"/>
      <path id="패스_58" data-name="패스 58" d="M946.707,317.777l12.924,3.4s9.523,34.691,10.2,35.372,1.36,4.762,1.36,4.762,0,.68,1.36,2.721,3.4.68,2.041,3.4-3.4,1.36-2.041,4.081.68,10.2.68,10.2-3.4-12.924-15.645-9.523l-8.163-36.732Z" transform="translate(-333.058 -196.422)" fill="#939597"/>
      <path id="패스_59" data-name="패스 59" d="M779.385,161.888l-.047.156-22.405,70.584-14.706-3.266-15.9-3.53,22.452-72.785Z" transform="translate(-161.464 -34.023)" fill="#f5df4d"/>
      <path id="패스_60" data-name="패스 60" d="M853.193,317.777l-12.924,3.4s-9.523,34.691-10.2,35.372-1.36,4.762-1.36,4.762,0,.68-1.36,2.721-3.4.68-2.041,3.4,3.4,1.36,2.041,4.081-.68,10.2-.68,10.2,3.4-12.924,15.645-9.523l8.163-36.732Z" transform="translate(-305.97 -196.422)" fill="#939597"/>
      <path id="패스_61" data-name="패스 61" d="M831.172,381.907l-4.25,7.1s-1.873,13.3,7.651,13.3S857.7,389.39,857.7,389.39s6.8-2.721,10.884-2.041,26.529,0,17.006-11.564-25.849,0-25.849,0l-17.005,8.163-8.843-4.762Z" transform="translate(-306.396 -208.175)" fill="#ffb8b8"/>
      <path id="패스_62" data-name="패스 62" d="M836.9,372.929l6.8,10.884s-15.645,2.041-17.006,5.442,6.122-17.686,6.122-17.686Z" transform="translate(-306.342 -208.381)" fill="#939597"/>
      <path id="패스_63" data-name="패스 63" d="M881.064,243.764c13.7-7.385,19.326-7.073,36.36,0l4.545-11.073a7.873,7.873,0,0,0-7.864-7.864H883.626a7.873,7.873,0,0,0-7.864,7.864Z" transform="translate(-317.286 -175.759)" fill="#2f2e41"/>
      <path id="패스_64" data-name="패스 64" d="M783.885,163.378l-22.405,70.584L746.773,230.7l22.1-71.649Z" transform="translate(-166.01 -35.356)" opacity="0.2"/>
      <path id="패스_65-2" data-name="패스 65" d="M774.771,159.044l-22.447,72.784,30.61,6.8,22.447-70.743Z" transform="translate(-167.244 -35.356)" fill="#f5df4d"/>
      <path id="패스_66" data-name="패스 66" d="M959.349,381.907l4.25,7.1s1.872,13.3-7.651,13.3S932.82,389.39,932.82,389.39s-6.8-2.721-10.884-2.041-26.529,0-17.005-11.564,25.849,0,25.849,0l17.005,8.163,8.843-4.762Z" transform="translate(-323.252 -208.175)" fill="#ffb8b8"/>
      <path id="패스_67" data-name="패스 67" d="M966.192,372.929l-6.8,10.884s15.645,2.041,17.006,5.442-6.122-17.686-6.122-17.686Z" transform="translate(-335.877 -208.381)" fill="#939597"/>
    </g>
  </g>
</svg>
